<svg xmlns="http://www.w3.org/2000/svg" viewBox="0 0 64 64">
  <defs>
    <linearGradient id="bg" x1="0" y1="0" x2="1" y2="1">
      <stop offset="0%" stop-color="#a7f3d0"/>
      <stop offset="55%" stop-color="#6ee7d6"/>
      <stop offset="100%" stop-color="#5eead4"/>
    </linearGradient>
    <linearGradient id="drop" x1="0" y1="0" x2="0" y2="1">
      <stop offset="0%" stop-color="#14b8a6"/>
      <stop offset="100%" stop-color="#0f766e"/>
    </linearGradient>
    <radialGradient id="glow" cx="0.3" cy="0.3" r="0.6">
      <stop offset="0%" stop-color="#ffffff" stop-opacity="0.35"/>
      <stop offset="100%" stop-color="#ffffff" stop-opacity="0"/>
    </radialGradient>
  </defs>
  <rect width="64" height="64" rx="14" fill="url(#bg)"/>
  <rect width="64" height="64" rx="14" fill="url(#glow)"/>
  <path d="M32 7 C 20 22, 16 34, 16 41 A 16 16 0 0 0 48 41 C 48 34, 44 22, 32 7 Z" fill="url(#drop)"/>
  <path d="M32 7 C 44 22, 48 34, 48 41 A 16 16 0 0 1 32 57 L 32 7 Z" fill="#ffffff" fill-opacity="0.18"/>
  <ellipse cx="25" cy="33" rx="2.8" ry="6.5" fill="#ffffff" fill-opacity="0.55" transform="rotate(-15 25 33)"/>
  <circle cx="22" cy="26" r="1.1" fill="#ffffff" fill-opacity="0.85"/>
</svg>
